<?xml version="1.0" encoding="utf-8"?>
<!-- Generator: Adobe Illustrator 18.1.0, SVG Export Plug-In . SVG Version: 6.00 Build 0)  -->
<!DOCTYPE svg PUBLIC "-//W3C//DTD SVG 1.1//EN" "http://www.w3.org/Graphics/SVG/1.1/DTD/svg11.dtd">
<svg version="1.1" id="Layer_1" xmlns="http://www.w3.org/2000/svg" xmlns:xlink="http://www.w3.org/1999/xlink" x="0px" y="0px"
	 viewBox="0 0 999.8 159" enable-background="new 0 0 999.8 159" xml:space="preserve">
<g>
	<rect fill="#652D90" width="100%" height="100%"/>
	<path fill="#FFFFFF" d="M159,5c0-2.8-2.3-5-5-5H5C2.3,0,0,2.3,0,5V154c0,2.8,2.3,5,5,5H154c2.8,0,5-2.3,5-5V5z M137.1,99.8
		l-18.7-7.1c-1.6,4.4-4,8.3-6.9,11.8l15.2,12.7c-4.5,5.3-9.8,9.8-15.9,13.3l-10-17.2c-3.9,2.3-8.3,3.9-13,4.7l3.4,19.6
		c-3.4,0.6-6.9,0.9-10.4,0.9c-3.5,0-6.9-0.3-10.3-0.9l3.4-19.6c-4.7-0.8-9-2.4-13-4.7l-10,17.2c-6-3.5-11.4-8-15.9-13.3l15.2-12.8
		c-3-3.5-5.4-7.6-7-12l-18.9,6.8c-2.4-6.5-5.3-13.4-5.3-20.4l17.8,0c0,0,0,0,0,0c0-4.8,2.9-9.3,4.4-13.6l-17.3-6.8
		c2.4-6.6,6.2-12.6,10.7-18l15.4,12.8c3-3.5,6.6-6.6,10.7-8.9L51,27.1c6.1-3.5,12.6-5.9,19.5-7.1L74,39.6c2.3-0.4,4.6-0.6,7-0.6
		c2.3,0,4.6,0.2,6.9,0.6l3.4-19.6c6.9,1.2,13.5,3.6,19.5,7.1l-9.9,17.2c4,2.3,7.6,5.3,10.6,8.9l15.2-12.8c4.5,5.3,8,11.4,10.4,18
		l-18.7,7.5c1.5,4.2,2.4,6.8,2.4,14.2h19.9C140.7,85,139.5,93.3,137.1,99.8z"/>
	<path fill="#FFFFFF" d="M224,40.2c16.1,0,26,7.3,26,19.4c0,8.7-5.2,15.3-13.6,17.3c10.4,1.8,16.6,9.2,16.6,19.6
		c0,13.3-10.7,21.3-28.2,21.3h-34.4V40.2H224z M203.4,72.3h19.9c8.3,0,13.3-3.9,13.3-10.4c0-6.5-5-10.1-13.3-10.1h-19.9V72.3z
		 M203.4,106.1h19.9c10.2,0,16.3-4,16.3-11.3c0-6.9-6.1-11-16.3-11h-19.9V106.1z"/>
	<path fill="#FFFFFF" d="M313,105.9v11.9h-46.6V40.2h13.1v65.7H313z"/>
	<path fill="#FFFFFF" d="M399,79c0,22.2-17.9,39.3-41.1,39.3c-23.1,0-41.1-17.2-41.1-39.3c0-22.3,17.9-39.1,41.1-39.1
		C381.1,39.9,399,56.8,399,79z M330.1,79c0,15.4,12.7,27.6,27.9,27.6c15.2,0,27.6-12.2,27.6-27.6c0-15.4-12.4-27.4-27.6-27.4
		C342.8,51.6,330.1,63.6,330.1,79z"/>
	<path fill="#FFFFFF" d="M478.1,51.8l-7.6,9.5c-5.6-6.1-13.7-9.9-21.6-9.9c-15.5,0-27.7,12-27.7,27.2s12.2,27.4,27.7,27.4
		c7.8,0,15.7-3.5,21.6-9.2l7.8,8.6c-7.9,7.8-19.1,12.7-30,12.7c-22.7,0-40.3-17.2-40.3-39.4c0-22,17.8-39,40.8-39
		C459.6,39.9,470.6,44.4,478.1,51.8z"/>
	<path fill="#FFFFFF" d="M513.3,83.5L500.1,98v19.7h-13.1V40.2h13.1v40.1l37-40.1h15.4l-30,33.1l32,44.4h-15.7L513.3,83.5z"/>
	<path fill="#0B8ED8" d="M628.1,51.8l-7.6,9.5c-5.6-6.1-13.7-9.9-21.6-9.9c-15.5,0-27.7,12-27.7,27.2s12.2,27.4,27.7,27.4
		c7.8,0,15.7-3.5,21.6-9.2l7.8,8.6c-7.9,7.8-19.1,12.7-30,12.7c-22.7,0-40.3-17.2-40.3-39.4c0-22,17.8-39,40.8-39
		C609.6,39.9,620.6,44.4,628.1,51.8z"/>
	<path fill="#0B8ED8" d="M673.3,117.7h-13V92.4l-28.9-52.2h13.2L666.8,78l21.7-37.8h13.3l-28.5,51.7V117.7z"/>
	<path fill="#0B8ED8" d="M740.8,40.2c19.5,0,30.7,9.6,30.7,26.5c0,17.5-11.2,27.7-30.7,27.7h-17.8v23.4h-13.1V40.2H740.8z
		 M722.9,82.6h17.3c12,0,18.7-5.1,18.7-15.6c0-10.2-6.8-15.1-18.7-15.1h-17.3V82.6z"/>
	<path fill="#0B8ED8" d="M836.3,117.7V85.6h-41.1v32.1h-13.1V40.2h13.1v33.7h41.1V40.2h13.1v77.5H836.3z"/>
	<path fill="#0B8ED8" d="M878.4,51.9v20.9h37.9v11.7h-37.9V106h43.6v11.7h-56.7V40.2h55.4v11.7H878.4z"/>
	<path fill="#0B8ED8" d="M970.8,94.3c-1.1,0.1-2.3,0.1-3.5,0.1h-18.4v23.4h-13.1V40.2h31.5c19.8,0,31.2,9.6,31.2,26.5
		c0,12.4-5.8,21.2-16.1,25.1l17.4,25.9H985L970.8,94.3z M967.3,82.6c12,0,18.8-5.1,18.8-15.6c0-10.2-6.9-15.1-18.8-15.1h-18.4v30.7
		H967.3z"/>
</g>
</svg>
